<svg xmlns="http://www.w3.org/2000/svg" xmlns:xlink="http://www.w3.org/1999/xlink" width="2000" zoomAndPan="magnify" viewBox="0 0 1500 1499.999933" height="2000" preserveAspectRatio="xMidYMid meet" version="1.0"><defs><clipPath id="f0bd375642"><path d="M 12.792969 0 L 1487.207031 0 L 1487.207031 1474.414062 L 12.792969 1474.414062 Z M 12.792969 0 " clip-rule="nonzero"/></clipPath><clipPath id="25cf88969a"><path d="M 750 0 C 342.851562 0 12.792969 330.058594 12.792969 737.207031 C 12.792969 1144.355469 342.851562 1474.414062 750 1474.414062 C 1157.148438 1474.414062 1487.207031 1144.355469 1487.207031 737.207031 C 1487.207031 330.058594 1157.148438 0 750 0 Z M 750 0 " clip-rule="nonzero"/></clipPath><clipPath id="7c4a641b7b"><path d="M 12.792969 0 L 1487.199219 0 L 1487.199219 1474.40625 L 12.792969 1474.40625 Z M 12.792969 0 " clip-rule="nonzero"/></clipPath><clipPath id="5f76a945d1"><path d="M 749.996094 0 C 342.851562 0 12.792969 330.058594 12.792969 737.203125 C 12.792969 1144.347656 342.851562 1474.40625 749.996094 1474.40625 C 1157.140625 1474.40625 1487.199219 1144.347656 1487.199219 737.203125 C 1487.199219 330.058594 1157.140625 0 749.996094 0 Z M 749.996094 0 " clip-rule="nonzero"/></clipPath><clipPath id="681509e03d"><path d="M 328.125 315.332031 L 1171.875 315.332031 L 1171.875 1159.082031 L 328.125 1159.082031 Z M 328.125 315.332031 " clip-rule="nonzero"/></clipPath><clipPath id="8e9a06f723"><path d="M 328.125 390.332031 L 328.125 1084.082031 C 328.125 1125.503906 361.703125 1159.082031 403.125 1159.082031 L 1096.875 1159.082031 C 1138.296875 1159.082031 1171.875 1125.503906 1171.875 1084.082031 L 1171.875 390.332031 C 1171.875 348.910156 1138.296875 315.332031 1096.875 315.332031 L 403.125 315.332031 C 361.703125 315.332031 328.125 348.910156 328.125 390.332031 Z M 328.125 390.332031 " clip-rule="nonzero"/></clipPath><clipPath id="9dccbe50be"><path d="M 514 705 L 812 705 L 812 1087 L 514 1087 Z M 514 705 " clip-rule="nonzero"/></clipPath><clipPath id="85ec98ce86"><path d="M 328.125 390.332031 L 328.125 1084.082031 C 328.125 1125.503906 361.703125 1159.082031 403.125 1159.082031 L 1096.875 1159.082031 C 1138.296875 1159.082031 1171.875 1125.503906 1171.875 1084.082031 L 1171.875 390.332031 C 1171.875 348.910156 1138.296875 315.332031 1096.875 315.332031 L 403.125 315.332031 C 361.703125 315.332031 328.125 348.910156 328.125 390.332031 Z M 328.125 390.332031 " clip-rule="nonzero"/></clipPath><clipPath id="af1fc72330"><path d="M 833 701 L 1106 701 L 1106 1091 L 833 1091 Z M 833 701 " clip-rule="nonzero"/></clipPath><clipPath id="7bf0733c94"><path d="M 328.125 390.332031 L 328.125 1084.082031 C 328.125 1125.503906 361.703125 1159.082031 403.125 1159.082031 L 1096.875 1159.082031 C 1138.296875 1159.082031 1171.875 1125.503906 1171.875 1084.082031 L 1171.875 390.332031 C 1171.875 348.910156 1138.296875 315.332031 1096.875 315.332031 L 403.125 315.332031 C 361.703125 315.332031 328.125 348.910156 328.125 390.332031 Z M 328.125 390.332031 " clip-rule="nonzero"/></clipPath></defs><g clip-path="url(#f0bd375642)"><g clip-path="url(#25cf88969a)"><path fill="#021934" d="M 12.792969 0 L 1487.207031 0 L 1487.207031 1474.414062 L 12.792969 1474.414062 Z M 12.792969 0 " fill-opacity="1" fill-rule="nonzero"/></g></g><g clip-path="url(#7c4a641b7b)"><g clip-path="url(#5f76a945d1)"><path stroke-linecap="butt" transform="matrix(0.75, 0, 0, 0.75, 12.792955, -0.00002)" fill="none" stroke-linejoin="miter" d="M 982.93754 0.0000266667 C 440.078153 0.0000266667 0.0000185892 440.078161 0.0000185892 982.937548 C 0.0000185892 1525.796935 440.078153 1965.87507 982.93754 1965.87507 C 1525.796927 1965.87507 1965.875062 1525.796935 1965.875062 982.937548 C 1965.875062 440.078161 1525.796927 0.0000266667 982.93754 0.0000266667 Z M 982.93754 0.0000266667 " stroke="#556e9a" stroke-width="20" stroke-opacity="1" stroke-miterlimit="4"/></g></g><g clip-path="url(#681509e03d)"><g clip-path="url(#8e9a06f723)"><path fill="#007acc" d="M 328.125 1159.082031 L 1171.875 1159.082031 L 1171.875 315.332031 L 328.125 315.332031 Z M 328.125 1159.082031 " fill-opacity="1" fill-rule="nonzero"/></g></g><g clip-path="url(#9dccbe50be)"><g clip-path="url(#85ec98ce86)"><path fill="#ffffff" d="M 514.671875 739.976562 L 514.410156 774.550781 L 624.230469 774.550781 L 624.230469 1086.605469 L 701.910156 1086.605469 L 701.910156 774.550781 L 811.730469 774.550781 L 811.730469 740.667969 C 811.730469 721.914062 811.332031 706.226562 810.796875 705.832031 C 810.394531 705.304688 743.5625 705.039062 662.527344 705.171875 L 515.070312 705.566406 Z M 514.671875 739.976562 " fill-opacity="1" fill-rule="nonzero"/></g></g><g clip-path="url(#af1fc72330)"><g clip-path="url(#7bf0733c94)"><path fill="#ffffff" d="M 1008.957031 704.609375 C 1030.382812 709.949219 1046.730469 719.476562 1061.726562 735 C 1069.472656 743.304688 1081.007812 758.433594 1081.929688 762.058594 C 1082.195312 763.144531 1045.511719 787.765625 1023.261719 801.578125 C 1022.472656 802.105469 1019.273438 798.609375 1015.648438 793.269531 C 1004.804688 777.449219 993.402344 770.628906 976 769.441406 C 950.421875 767.695312 933.945312 781.074219 934.074219 803.453125 C 934.074219 810.015625 935.03125 813.902344 937.703125 819.242188 C 943.335938 830.910156 953.785156 837.863281 986.578125 852.070312 C 1046.992188 878.042969 1072.832031 895.179688 1088.917969 919.570312 C 1106.847656 946.761719 1110.867188 990.132812 1098.671875 1022.402344 C 1085.292969 1057.503906 1052.070312 1081.332031 1005.332031 1089.242188 C 990.863281 1091.78125 956.585938 1091.382812 941.03125 1088.582031 C 907.148438 1082.550781 875.011719 1065.808594 855.207031 1043.859375 C 847.425781 1035.289062 832.296875 1012.910156 833.222656 1011.292969 C 833.648438 1010.765625 837.109375 1008.625 841 1006.351562 C 844.757812 1004.207031 858.960938 996.035156 872.34375 988.253906 L 896.570312 974.214844 L 901.675781 981.695312 C 908.761719 992.539062 924.320312 1007.40625 933.679688 1012.382812 C 960.609375 1026.554688 997.554688 1024.542969 1015.78125 1008.230469 C 1023.558594 1001.109375 1026.757812 993.761719 1026.757812 982.917969 C 1026.757812 973.128906 1025.570312 968.84375 1020.460938 961.492188 C 1013.902344 952.101562 1000.519531 944.191406 962.488281 927.742188 C 918.949219 908.988281 900.195312 897.320312 883.054688 878.832031 C 873.136719 868.121094 863.773438 850.980469 859.886719 836.644531 C 856.65625 824.746094 855.863281 794.886719 858.402344 782.824219 C 867.398438 740.765625 899.140625 711.433594 944.917969 702.730469 C 959.785156 699.929688 994.359375 700.984375 1008.957031 704.609375 Z M 1008.957031 704.609375 " fill-opacity="1" fill-rule="nonzero"/></g></g></svg>