<svg xmlns="http://www.w3.org/2000/svg" xmlns:xlink="http://www.w3.org/1999/xlink" width="2000" zoomAndPan="magnify" viewBox="0 0 1500 1499.999933" height="2000" preserveAspectRatio="xMidYMid meet" version="1.0"><defs><clipPath id="ac3fcdccf6"><path d="M 12.792969 0 L 1487.207031 0 L 1487.207031 1474.414062 L 12.792969 1474.414062 Z M 12.792969 0 " clip-rule="nonzero"/></clipPath><clipPath id="52181dd4ad"><path d="M 750 0 C 342.851562 0 12.792969 330.058594 12.792969 737.207031 C 12.792969 1144.355469 342.851562 1474.414062 750 1474.414062 C 1157.148438 1474.414062 1487.207031 1144.355469 1487.207031 737.207031 C 1487.207031 330.058594 1157.148438 0 750 0 Z M 750 0 " clip-rule="nonzero"/></clipPath><clipPath id="22b0278ad7"><path d="M 12.792969 0 L 1487.199219 0 L 1487.199219 1474.40625 L 12.792969 1474.40625 Z M 12.792969 0 " clip-rule="nonzero"/></clipPath><clipPath id="d2e9aada21"><path d="M 749.996094 0 C 342.851562 0 12.792969 330.058594 12.792969 737.203125 C 12.792969 1144.347656 342.851562 1474.40625 749.996094 1474.40625 C 1157.140625 1474.40625 1487.199219 1144.347656 1487.199219 737.203125 C 1487.199219 330.058594 1157.140625 0 749.996094 0 Z M 749.996094 0 " clip-rule="nonzero"/></clipPath></defs><g clip-path="url(#ac3fcdccf6)"><g clip-path="url(#52181dd4ad)"><path fill="#021934" d="M 12.792969 0 L 1487.207031 0 L 1487.207031 1474.414062 L 12.792969 1474.414062 Z M 12.792969 0 " fill-opacity="1" fill-rule="nonzero"/></g></g><g clip-path="url(#22b0278ad7)"><g clip-path="url(#d2e9aada21)"><path stroke-linecap="butt" transform="matrix(0.75, 0, 0, 0.75, 12.792955, -0.00002)" fill="none" stroke-linejoin="miter" d="M 982.93754 0.0000266667 C 440.078153 0.0000266667 0.0000185892 440.078161 0.0000185892 982.937548 C 0.0000185892 1525.796935 440.078153 1965.87507 982.93754 1965.87507 C 1525.796927 1965.87507 1965.875062 1525.796935 1965.875062 982.937548 C 1965.875062 440.078161 1525.796927 0.0000266667 982.93754 0.0000266667 Z M 982.93754 0.0000266667 " stroke="#556e9a" stroke-width="20" stroke-opacity="1" stroke-miterlimit="4"/></g></g><path fill="#00d8ff" d="M 1050.871094 603.703125 C 1041.199219 600.367188 1031.167969 597.210938 1020.804688 594.226562 C 1022.519531 587.289062 1024.089844 580.445312 1025.476562 573.714844 C 1048.207031 463.222656 1033.355469 374.207031 982.527344 344.898438 C 933.78125 316.800781 854.089844 346.101562 773.597656 416.148438 C 765.863281 422.882812 758.089844 430.015625 750.355469 437.488281 C 745.171875 432.542969 740.027344 427.765625 734.882812 423.195312 C 650.523438 348.296875 565.96875 316.730469 515.199219 346.121094 C 466.515625 374.304688 452.097656 457.984375 472.589844 562.703125 C 474.566406 572.816406 476.878906 583.148438 479.492188 593.648438 C 467.527344 597.046875 455.976562 600.664062 444.921875 604.519531 C 346.027344 638.996094 282.871094 693.039062 282.871094 749.097656 C 282.871094 806.96875 350.671875 865.058594 453.675781 900.269531 C 461.804688 903.042969 470.238281 905.671875 478.929688 908.152344 C 476.109375 919.5 473.65625 930.628906 471.597656 941.503906 C 452.0625 1044.402344 467.316406 1126.101562 515.871094 1154.085938 C 566.019531 1183.023438 650.195312 1153.285156 732.148438 1081.65625 C 738.640625 1076 745.136719 1069.980469 751.632812 1063.703125 C 760.097656 1071.804688 768.527344 1079.503906 776.882812 1086.730469 C 856.28125 1155.035156 934.691406 1182.621094 983.183594 1154.5625 C 1033.28125 1125.554688 1049.59375 1037.761719 1028.429688 930.992188 C 1026.824219 922.820312 1024.925781 914.5 1022.847656 906.035156 C 1028.757812 904.285156 1034.558594 902.460938 1040.214844 900.597656 C 1147.308594 865.09375 1216.964844 807.769531 1216.964844 749.097656 C 1216.964844 692.832031 1151.761719 638.433594 1050.871094 603.703125 Z M 1027.664062 862.722656 C 1022.554688 864.402344 1017.300781 866.042969 1011.972656 867.613281 C 1000.152344 830.210938 984.207031 790.402344 964.648438 749.277344 C 983.292969 709.140625 998.621094 669.855469 1010.113281 632.675781 C 1019.671875 635.441406 1028.941406 638.355469 1037.878906 641.429688 C 1124.320312 671.191406 1177.046875 715.199219 1177.046875 749.097656 C 1177.046875 785.183594 1120.125 832.070312 1027.664062 862.722656 Z M 989.277344 938.730469 C 998.65625 985.945312 999.96875 1028.636719 993.765625 1062.027344 C 988.21875 1092.019531 977.019531 1112.015625 963.191406 1120.007812 C 933.742188 1137.046875 870.800781 1114.898438 802.933594 1056.480469 C 795.125 1049.765625 787.28125 1042.613281 779.433594 1035.058594 C 805.742188 1006.269531 832.050781 972.808594 857.738281 935.628906 C 902.875 931.652344 945.53125 925.082031 984.242188 916.144531 C 986.140625 923.84375 987.820312 931.359375 989.277344 938.730469 Z M 601.335938 1117.050781 C 572.578125 1127.230469 549.671875 1127.523438 535.824219 1119.53125 C 506.359375 1102.527344 494.109375 1036.921875 510.816406 948.945312 C 512.734375 938.875 515.011719 928.511719 517.636719 917.929688 C 555.898438 926.394531 598.25 932.488281 643.515625 936.140625 C 669.367188 972.519531 696.441406 1005.941406 723.695312 1035.207031 C 717.75 1040.972656 711.800781 1046.445312 705.890625 1051.589844 C 669.65625 1083.300781 633.34375 1105.777344 601.335938 1117.050781 Z M 466.597656 862.503906 C 421.050781 846.921875 383.433594 826.707031 357.652344 804.597656 C 334.480469 784.78125 322.789062 765.078125 322.789062 749.097656 C 322.789062 715.089844 373.496094 671.6875 458.070312 642.203125 C 468.335938 638.621094 479.078125 635.25 490.222656 632.082031 C 501.914062 670.105469 517.246094 709.871094 535.75 750.042969 C 517.007812 790.839844 501.453125 831.234375 489.652344 869.730469 C 481.703125 867.429688 474.003906 865.023438 466.597656 862.503906 Z M 511.761719 555.039062 C 494.207031 465.320312 505.867188 397.644531 535.207031 380.660156 C 566.453125 362.566406 635.554688 388.363281 708.371094 453.035156 C 713.042969 457.167969 717.710938 461.492188 722.417969 465.96875 C 695.273438 495.113281 668.453125 528.289062 642.832031 564.445312 C 598.898438 568.519531 556.847656 575.058594 518.183594 583.820312 C 515.753906 574.039062 513.601562 564.433594 511.761719 555.039062 Z M 914.664062 654.535156 C 905.433594 638.570312 895.945312 622.984375 886.277344 607.816406 C 916.085938 611.585938 944.621094 616.589844 971.441406 622.707031 C 963.414062 648.511719 953.378906 675.488281 941.554688 703.15625 C 933.089844 687.058594 924.113281 670.835938 914.664062 654.535156 Z M 750.359375 494.488281 C 768.785156 514.429688 787.210938 536.691406 805.347656 560.847656 C 787.066406 559.988281 768.566406 559.539062 749.921875 559.539062 C 731.457031 559.539062 713.105469 559.976562 694.933594 560.828125 C 713.066406 536.894531 731.675781 514.660156 750.359375 494.488281 Z M 585 654.8125 C 575.769531 670.820312 566.972656 686.953125 558.632812 703.121094 C 547.015625 675.554688 537.070312 648.457031 528.953125 622.285156 C 555.601562 616.324219 584.023438 611.445312 613.636719 607.75 C 603.824219 623.050781 594.257812 638.753906 585 654.808594 Z M 614.488281 893.265625 C 583.890625 889.871094 555.042969 885.238281 528.402344 879.433594 C 536.652344 852.796875 546.808594 825.140625 558.679688 796.96875 C 567.039062 813.132812 575.867188 829.261719 585.160156 845.316406 C 594.625 861.664062 604.429688 877.648438 614.488281 893.265625 Z M 751.453125 1006.488281 C 732.550781 986.09375 713.6875 963.503906 695.261719 939.242188 C 713.140625 939.933594 731.382812 940.296875 749.921875 940.296875 C 768.96875 940.296875 787.796875 939.859375 806.292969 939.058594 C 788.125 963.761719 769.734375 986.382812 751.453125 1006.488281 Z M 941.921875 795.546875 C 954.398438 824.007812 964.945312 851.519531 973.300781 877.71875 C 946.226562 883.886719 916.960938 888.847656 886.167969 892.570312 C 895.871094 877.207031 905.433594 861.335938 914.847656 845.027344 C 924.371094 828.53125 933.382812 812.003906 941.921875 795.546875 Z M 880.253906 825.101562 C 865.660156 850.425781 850.664062 874.582031 835.449219 897.386719 C 807.753906 899.359375 779.109375 900.378906 749.921875 900.378906 C 720.839844 900.378906 692.5625 899.503906 665.339844 897.714844 C 649.503906 874.617188 634.199219 850.390625 619.691406 825.320312 L 619.695312 825.320312 C 605.222656 800.328125 591.90625 775.113281 579.839844 750.042969 C 591.902344 724.941406 605.1875 699.691406 619.574219 674.742188 L 619.570312 674.746094 C 633.992188 649.734375 649.175781 625.609375 664.867188 602.640625 C 692.632812 600.539062 721.132812 599.445312 749.921875 599.445312 C 778.855469 599.445312 807.351562 600.550781 835.121094 602.664062 C 850.589844 625.46875 865.660156 649.511719 880.144531 674.53125 C 894.777344 699.835938 908.242188 724.902344 920.394531 749.496094 C 908.277344 774.492188 894.851562 799.816406 880.253906 825.101562 Z M 962.574219 379.460938 C 993.878906 397.503906 1006.03125 470.25 986.363281 565.652344 C 985.121094 571.738281 983.699219 577.9375 982.167969 584.21875 C 943.417969 575.277344 901.347656 568.625 857.304688 564.492188 C 831.617188 527.9375 805.015625 494.707031 778.308594 465.941406 C 785.496094 459.039062 792.683594 452.449219 799.800781 446.238281 C 868.761719 386.222656 933.238281 362.527344 962.574219 379.460938 Z M 749.921875 665.664062 C 795.96875 665.664062 833.332031 703 833.332031 749.085938 C 833.332031 795.132812 795.96875 832.5 749.921875 832.5 C 703.871094 832.5 666.507812 795.132812 666.507812 749.085938 C 666.507812 703 703.871094 665.664062 749.921875 665.664062 Z M 749.921875 665.664062 " fill-opacity="1" fill-rule="nonzero"/></svg>