<!DOCTYPE svg PUBLIC "-//W3C//DTD SVG 1.1//EN" "http://www.w3.org/Graphics/SVG/1.1/DTD/svg11.dtd">

<svg
  width="800px"
  height="800px"
  viewBox="-7 0 16 24"
  fill="none"
  xmlns="http://www.w3.org/2000/svg"
>
  <g id="SVGRepo_bgCarrier" stroke-width="0" />
  <g id="SVGRepo_tracerCarrier" stroke-linecap="round" stroke-linejoin="round" />
  <g id="SVGRepo_iconCarrier" transform="rotate(180, 12, 12)">
    <path
      d="M16.4425 7.32781C16.7196 7.01993 17.1938 6.99497 17.5017 7.27206L19.2392 8.8358C19.9756 9.49847 20.5864 10.0482 21.0058 10.5467C21.4468 11.071 21.7603 11.6342 21.7603 12.3295C21.7603 13.0248 21.4468 13.5881 21.0058 14.1123C20.5864 14.6109 19.9756 15.1606 19.2392 15.8233L17.5017 17.387C17.1938 17.6641 16.7196 17.6391 16.4425 17.3313C16.1654 17.0234 16.1904 16.5492 16.4983 16.2721L18.1947 14.7452C18.9826 14.0362 19.5138 13.5558 19.8579 13.1467C20.1882 12.7541 20.2603 12.525 20.2603 12.3295C20.2603 12.1341 20.1882 11.9049 19.8579 11.5123C19.5138 11.1033 18.9826 10.6229 18.1947 9.91383L16.4983 8.387C16.1904 8.10991 16.1654 7.63569 16.4425 7.32781Z"
      fill="#172554"
    />
  </g>
</svg>
